<mxfile host="65bd71144e">
    <diagram id="fjN8D4Odn0497USpxgly" name="Page-1">
        <mxGraphModel dx="2483" dy="782" grid="1" gridSize="10" guides="1" tooltips="1" connect="1" arrows="1" fold="1" page="1" pageScale="1" pageWidth="1169" pageHeight="827" background="#FFFFFF" math="0" shadow="0">
            <root>
                <mxCell id="0"/>
                <mxCell id="1" parent="0"/>
                <mxCell id="274" value="" style="rounded=0;whiteSpace=wrap;html=1;strokeColor=none;" parent="1" vertex="1">
                    <mxGeometry x="-1150" y="50" width="920" height="580" as="geometry"/>
                </mxCell>
                <mxCell id="163" style="edgeStyle=orthogonalEdgeStyle;html=1;rounded=0;" parent="1" source="161" target="166" edge="1">
                    <mxGeometry relative="1" as="geometry">
                        <mxPoint x="-908" y="70" as="sourcePoint"/>
                        <mxPoint x="-708" y="140" as="targetPoint"/>
                    </mxGeometry>
                </mxCell>
                <mxCell id="161" value="main()" style="rounded=0;whiteSpace=wrap;html=1;" parent="1" vertex="1">
                    <mxGeometry x="-800" y="60" width="120" height="90" as="geometry"/>
                </mxCell>
                <mxCell id="189" style="edgeStyle=elbowEdgeStyle;rounded=0;html=1;" parent="1" source="166" target="188" edge="1">
                    <mxGeometry relative="1" as="geometry"/>
                </mxCell>
                <mxCell id="166" value="registry_load()" style="rounded=0;whiteSpace=wrap;html=1;" parent="1" vertex="1">
                    <mxGeometry x="-1060" y="190" width="220" height="60" as="geometry"/>
                </mxCell>
                <mxCell id="184" value="registry_save()" style="rounded=0;whiteSpace=wrap;html=1;" parent="1" vertex="1">
                    <mxGeometry x="-640" y="190" width="220" height="60" as="geometry"/>
                </mxCell>
                <mxCell id="186" style="edgeStyle=orthogonalEdgeStyle;html=1;rounded=0;" parent="1" source="161" target="184" edge="1">
                    <mxGeometry relative="1" as="geometry">
                        <mxPoint x="-598" y="120" as="sourcePoint"/>
                        <mxPoint x="-578" y="200" as="targetPoint"/>
                    </mxGeometry>
                </mxCell>
                <mxCell id="191" style="edgeStyle=elbowEdgeStyle;rounded=0;html=1;entryX=0.5;entryY=0;entryDx=0;entryDy=0;" parent="1" source="188" target="204" edge="1">
                    <mxGeometry relative="1" as="geometry">
                        <mxPoint x="-919.7647058823529" y="390.2352941176471" as="targetPoint"/>
                    </mxGeometry>
                </mxCell>
                <mxCell id="188" value="Call storage_facility-&amp;gt;load() with &lt;i&gt;registry_set_value&lt;/i&gt; callback as argument" style="rounded=0;whiteSpace=wrap;html=1;verticalAlign=top;" parent="1" vertex="1">
                    <mxGeometry x="-1140" y="320" width="380" height="171" as="geometry"/>
                </mxCell>
                <mxCell id="204" value="All configurations are loaded from storage" style="rounded=1;whiteSpace=wrap;html=1;arcSize=50;" parent="1" vertex="1">
                    <mxGeometry x="-1070" y="560" width="240" height="60" as="geometry"/>
                </mxCell>
                <mxCell id="253" style="edgeStyle=elbowEdgeStyle;rounded=0;html=1;" parent="1" source="184" target="268" edge="1">
                    <mxGeometry relative="1" as="geometry">
                        <mxPoint x="-610" y="307" as="sourcePoint"/>
                        <mxPoint x="-530" y="354.5" as="targetPoint"/>
                    </mxGeometry>
                </mxCell>
                <mxCell id="265" value="All configurations are saved into the storage" style="rounded=1;whiteSpace=wrap;html=1;arcSize=50;" parent="1" vertex="1">
                    <mxGeometry x="-660" y="560" width="260" height="60" as="geometry"/>
                </mxCell>
                <mxCell id="268" value="Call registry_export() with storage_facility-&amp;gt;store as callback" style="rounded=0;whiteSpace=wrap;html=1;" parent="1" vertex="1">
                    <mxGeometry x="-640" y="360" width="220" height="80" as="geometry"/>
                </mxCell>
                <mxCell id="270" value="" style="edgeStyle=elbowEdgeStyle;rounded=0;html=1;entryX=0.5;entryY=0;entryDx=0;entryDy=0;" parent="1" source="268" target="265" edge="1">
                    <mxGeometry relative="1" as="geometry">
                        <mxPoint x="-510" y="610.06" as="targetPoint"/>
                        <mxPoint x="-530" y="434.5" as="sourcePoint"/>
                    </mxGeometry>
                </mxCell>
                <mxCell id="277" value="" style="edgeStyle=elbowEdgeStyle;rounded=0;html=1;exitX=1;exitY=0.5;exitDx=0;exitDy=0;" parent="1" source="279" target="278" edge="1">
                    <mxGeometry relative="1" as="geometry">
                        <mxPoint x="-954" y="472" as="targetPoint"/>
                        <mxPoint as="offset"/>
                        <mxPoint x="-1013" y="470" as="sourcePoint"/>
                    </mxGeometry>
                </mxCell>
                <mxCell id="278" value="registry_set_value(key, value)" style="rounded=0;whiteSpace=wrap;html=1;" parent="1" vertex="1">
                    <mxGeometry x="-943" y="390" width="166" height="80" as="geometry"/>
                </mxCell>
                <mxCell id="279" value="Foreach stored configuration&amp;nbsp;as&lt;br&gt;&lt;b&gt;{key, value}&lt;/b&gt;" style="shape=hexagon;perimeter=hexagonPerimeter2;whiteSpace=wrap;html=1;fixedSize=1;" parent="1" vertex="1">
                    <mxGeometry x="-1123" y="390" width="120" height="80" as="geometry"/>
                </mxCell>
            </root>
        </mxGraphModel>
    </diagram>
</mxfile>